<!DOCTYPE svg PUBLIC "-//W3C//DTD SVG 1.1//EN" "http://www.w3.org/Graphics/SVG/1.1/DTD/svg11.dtd">
<!-- Uploaded to: SVG Repo, www.svgrepo.com, Transformed by: SVG Repo Mixer Tools -->
<svg fill="#000000" width="800px" height="800px" viewBox="0 0 128 128" data-name="Layer 1" id="Layer_1" xmlns="http://www.w3.org/2000/svg" transform="matrix(-1, 0, 0, 1, 0, 0)">
<g id="SVGRepo_bgCarrier" stroke-width="0"/>
<g id="SVGRepo_tracerCarrier" stroke-linecap="round" stroke-linejoin="round"/>
<g id="SVGRepo_iconCarrier">
<title/>
<path d="M126.363,93.688l-4.018-21.626L126,50.487a1,1,0,0,0-1.7-.868L105.308,68.931c-2.626-1.708-5.282-3.282-7.937-4.7a9.789,9.789,0,0,0,1.8-5.678,1,1,0,0,0-1-1,9.943,9.943,0,0,0-7.455,3.364c-.013.015-.023.032-.037.047a88.875,88.875,0,0,0-30.871-7.608l.454-.49a1.837,1.837,0,0,0-.784-3L56.523,48.9a1.177,1.177,0,0,1-.729-.684l-1.168-2.845a1.846,1.846,0,0,0-3.062-.564L43.127,53.93A96.261,96.261,0,0,0,23.153,58.8c-2.331.833-4.625,1.759-7.013,2.829a.992.992,0,0,0-.457.429A5.407,5.407,0,0,0,8.1,65.874a.987.987,0,0,0-.612.114C5.7,67,4,68.036,2.445,69.078a3.257,3.257,0,0,0-.021,5.375,104.143,104.143,0,0,0,19.87,10.8,84.806,84.806,0,0,0,32.018,6.378,82.464,82.464,0,0,0,8.42-.437,9.51,9.51,0,0,0,1.142,1.41h0A9.787,9.787,0,0,0,70.84,95.49a1,1,0,0,0,1-1,9.765,9.765,0,0,0-1.082-4.483,91.6,91.6,0,0,0,15.857-4.669l3.365,3.636a1.821,1.821,0,0,0,1.351.6,1.874,1.874,0,0,0,.329-.029,1.823,1.823,0,0,0,1.376-1.113L94.2,85.575a1.221,1.221,0,0,1,.756-.693l2.913-.945a1.843,1.843,0,0,0,.813-3.006l-.829-.9c3.121-1.719,5.635-3.338,7.392-4.551l19.431,19.1a1,1,0,0,0,1.685-.9ZM13.42,70.45A3.457,3.457,0,0,1,9.97,67a3.42,3.42,0,0,1,.092-.763,3.6,3.6,0,0,1,.178-.577,2.209,2.209,0,0,1,.18-.34c.015-.03.036-.056.053-.085.045-.075.087-.15.137-.221a3.144,3.144,0,0,1,.3-.374c.011-.013.026-.023.038-.036.037-.038.076-.072.115-.108l.017-.016c.006-.006.014-.009.02-.015a3.457,3.457,0,0,1,.6-.437c.029-.017.05-.042.08-.058a2.107,2.107,0,0,1,.26-.13l.015,0a3.446,3.446,0,0,1,.4-.129c.091-.027.176-.065.27-.084a3.441,3.441,0,0,1,.7-.072,2.47,2.47,0,0,1,.54.05c.017,0,.033.007.049.009.065.011.128.022.192.037l.019,0a2.75,2.75,0,0,1,.508.16c.041.017.079.037.119.056.074.034.15.064.223.1a2.2,2.2,0,0,1,.22.136c.029.019.06.035.088.055.01.007.022.012.032.02a3.675,3.675,0,0,1,.38.31c.02.016.036.037.055.055l.04.04c.015.016.033.029.046.046a1.808,1.808,0,0,1,.25.3.984.984,0,0,1,.062.086c.023.032.046.062.068.095l.021.029a3.428,3.428,0,0,1,.253.473c.023.052.04.107.061.16a3.384,3.384,0,0,1,.134.43c.014.059.029.118.04.179A3.407,3.407,0,0,1,16.88,67,3.459,3.459,0,0,1,13.42,70.45ZM30.53,82.06a5.508,5.508,0,0,1-5.49-5.5,1,1,0,0,1,1-1h8.99a1,1,0,0,1,1,1A5.51,5.51,0,0,1,30.53,82.06Zm8.8-14.24A3.82,3.82,0,1,1,43.16,64,3.82,3.82,0,0,1,39.33,67.82Zm9.34-3.42a2.85,2.85,0,1,1,2.86-2.85A2.855,2.855,0,0,1,48.67,64.4Zm4.53,4.32a2.1,2.1,0,1,1,2.1-2.1A2.1,2.1,0,0,1,53.2,68.72Zm5.75-2.84a2.85,2.85,0,1,1,2.85-2.85A2.857,2.857,0,0,1,58.95,65.88Zm6.14-1.3a2.09,2.09,0,1,1,2.1-2.09A2.1,2.1,0,0,1,65.09,64.58Zm6.08,6.07a3.825,3.825,0,1,1,3.82-3.83A3.837,3.837,0,0,1,71.17,70.65Zm8.48-3.8A2.85,2.85,0,1,1,82.5,64,2.855,2.855,0,0,1,79.65,66.85Zm25.9,4.54C74.11,53.7,44.44,56.54,24.85,62.18c-2.38.67-4.61,1.4-6.68,2.14a5.317,5.317,0,0,0-1.62-1.78c2.14-.96,4.45-1.91,6.94-2.8a95.171,95.171,0,0,1,20.13-4.87l14.02-.65a87.448,87.448,0,0,1,33.35,7.96l4.87,2.37a107.033,107.033,0,0,1,9.71,5.74c.01.01.02.01.03.02Z"/>
<circle cx="13.425" cy="67" r="1.336"/>
</g>
</svg>